<?xml version="1.0" encoding="UTF-8" standalone="no"?>
<svg
   width="1130"
   height="1130"
   viewBox="0 0 1130 1130"
   fill="none"
   version="1.1"
   id="svg4"
   sodipodi:docname="lpl.svg"
   inkscape:version="1.4.4 (dcaf3e7d9e, 2026-05-05)"
   xmlns:inkscape="http://www.inkscape.org/namespaces/inkscape"
   xmlns:sodipodi="http://sodipodi.sourceforge.net/DTD/sodipodi-0.dtd"
   xmlns="http://www.w3.org/2000/svg"
   xmlns:svg="http://www.w3.org/2000/svg">
  <sodipodi:namedview
     id="namedview4"
     pagecolor="#ffffff"
     bordercolor="#666666"
     borderopacity="1.0"
     inkscape:showpageshadow="2"
     inkscape:pageopacity="0.0"
     inkscape:pagecheckerboard="0"
     inkscape:deskcolor="#d1d1d1"
     inkscape:zoom="0.380171"
     inkscape:cx="566.85018"
     inkscape:cy="565.53498"
     inkscape:window-width="1126"
     inkscape:window-height="1269"
     inkscape:window-x="26"
     inkscape:window-y="23"
     inkscape:window-maximized="0"
     inkscape:current-layer="svg4" />
  <g
     clip-path="url(#clip0_3324_2)"
     id="g4"
     style="fill:#000000;fill-opacity:0.07053399">
    <path
       d="M565.1 0C253.547 0 0 253.547 0 565.1C0 876.652 253.547 1130.2 565.1 1130.2C876.652 1130.2 1130.2 876.652 1130.2 565.1C1130.2 253.547 876.652 0 565.1 0ZM565.1 25.1155C862.699 25.1155 1104.88 267.301 1104.88 564.9C1104.88 577.458 1104.29 590.016 1103.49 602.374C1103.29 602.574 1102.89 602.773 1102.49 602.972L735.527 901.169L588.023 882.034L506.098 863.098L357.398 897.183L29.7001 605.364C29.7001 605.364 27.7068 603.969 26.7102 603.57C25.7135 590.813 25.1155 578.056 25.1155 565.1C25.1155 267.301 267.301 25.1155 565.1 25.1155ZM488.557 1099.3C452.478 1094.12 417.596 1085.55 384.308 1073.59L403.842 1040.7L510.683 1046.08L488.358 1099.5L488.557 1099.3ZM390.088 1014.99L363.777 1059.04L278.464 959.174L112.223 857.915L41.2612 649.017L350.422 924.292L506.098 888.612L532.609 894.791L434.937 919.308L414.008 976.715L465.435 992.064L511.281 978.908L553.14 959.573H633.071L629.084 1089.74L522.044 1083.36L547.359 1022.56L390.088 1014.59V1014.99ZM547.559 935.056L502.51 955.985L465.435 966.35L446.299 960.57L453.674 940.437L586.428 907.149L742.902 927.481L1089.14 646.227L1009.6 868.878C1009.01 870.672 1007.81 872.067 1006.02 873.064L767.22 1011L654.798 1083.76L661.177 935.056H547.559ZM150.095 909.94L260.923 976.915L319.525 1045.48C254.345 1012 196.738 965.752 150.095 909.94ZM778.781 1033.13L967.945 923.893C869.077 1034.92 725.161 1104.88 565.1 1104.88C562.907 1104.88 560.515 1104.88 558.322 1104.88L651.409 1112.86"
       fill="#231F20"
       id="path1"
       style="fill:#000000;fill-opacity:0.07053399" />
    <path
       d="M644.831 623.105C631.676 615.131 618.919 607.557 607.357 600.58C581.245 585.033 561.711 590.215 549.751 597.192C496.929 628.486 498.922 767.619 499.719 795.126L501.314 845.557L534.602 807.684C535.798 806.289 587.225 747.885 652.605 674.332C709.614 708.617 770.409 745.892 799.91 764.031C812.667 771.805 826.819 775.791 841.769 775.193C876.453 773.997 891.402 759.047 897.98 746.689C909.541 724.364 902.963 694.465 877.449 654.798L843.962 676.525C868.479 714.597 863.297 726.955 862.699 728.151C860.705 732.138 851.935 734.729 840.573 735.128C833.597 735.128 826.819 733.533 820.84 729.746C786.156 708.617 731.54 675.13 679.714 643.835C773.2 538.788 883.628 416.001 919.109 382.115C939.839 362.182 949.009 360.587 949.208 359.79C954.59 365.969 955.985 395.669 951.998 421.582L991.466 427.761C995.452 402.447 1001.23 341.85 968.144 324.509C938.045 308.762 902.963 342.249 891.602 353.212C854.327 389.092 739.912 516.264 645.031 622.706L644.831 623.105ZM540.582 740.908C543.771 689.083 553.937 641.244 570.083 631.676C570.681 631.277 572.076 630.48 574.468 630.48C577.059 630.48 581.046 631.476 587.026 634.865C596.594 640.646 607.158 646.825 617.922 653.403C587.624 687.488 560.515 717.986 540.582 740.908Z"
       fill="#231F20"
       id="path2"
       style="fill:#000000;fill-opacity:0.07053399" />
    <path
       d="M561.512 208.698C561.512 208.698 556.329 189.961 565.1 180.593C573.87 171.224 596.992 169.43 628.885 176.008C700.046 190.559 871.27 265.906 869.077 300.589C869.077 300.988 865.091 331.485 701.84 346.634C719.182 327.299 733.135 311.951 742.503 301.984C753.068 290.822 755.858 275.075 749.878 260.923C743.898 246.77 730.743 238 715.394 237.601C714.796 237.601 714.398 237.601 713.8 237.601C660.977 237.601 555.333 284.443 531.812 326.103C521.646 344.043 527.227 357.797 531.413 364.375C539.386 376.932 555.532 388.892 608.952 390.886C483.972 532.011 303.778 738.915 301.386 741.706L331.485 767.818C334.077 764.828 539.386 529.021 663.17 389.69C666.559 389.49 670.146 389.291 673.934 388.892C833.198 377.331 905.754 350.82 908.744 302.981C914.525 214.08 639.45 137.139 636.659 136.74C588.421 126.973 554.336 132.554 535.2 153.883C511.48 180.194 522.044 216.472 523.24 220.459L561.312 208.698H561.512ZM644.632 350.82C592.408 352.614 573.471 347.033 567.492 344.242C579.85 323.711 662.771 279.46 710.61 277.666C696.259 293.015 672.937 318.928 644.632 350.82Z"
       fill="#231F20"
       id="path3"
       style="fill:#000000;fill-opacity:0.07053399" />
    <path
       d="M118.402 615.929L144.713 578.056C145.71 576.661 180.991 525.632 227.834 458.06C286.636 493.939 350.222 533.406 381.517 553.14C397.463 563.106 417.396 563.505 433.741 554.137C454.472 542.376 467.029 526.031 470.219 507.095C474.006 484.77 464.638 460.452 442.313 434.937L412.214 461.249C425.768 476.797 432.545 490.75 430.751 500.517C429.356 509.287 420.785 515.666 413.808 519.653C410.22 521.646 405.835 521.646 402.247 519.653C371.152 500.318 308.562 461.249 250.159 425.768C327.499 314.343 424.373 176.008 455.269 134.548C463.043 124.382 468.624 118.203 472.611 114.615C474.405 127.172 474.006 150.095 471.016 170.826L510.483 176.407C516.463 135.345 517.46 83.7185 489.155 71.958C464.239 61.5929 440.917 87.1071 423.376 110.628C391.483 153.285 293.613 293.214 216.073 405.038C201.722 396.267 187.968 388.095 175.809 380.919C148.7 364.773 130.362 370.355 119.797 378.128C78.3365 408.028 98.0702 523.44 108.435 571.678L118.202 616.726L118.402 615.929ZM143.119 409.822C143.119 409.822 143.119 409.822 143.517 409.822C144.713 409.822 148.301 410.221 155.676 414.606C167.238 421.383 179.995 429.157 193.549 437.329C172.42 467.827 153.683 494.936 139.531 515.267C131.956 459.455 134.348 415.602 143.318 409.822H143.119Z"
       fill="#231F20"
       id="path4"
       style="fill:#000000;fill-opacity:0.07053399" />
  </g>
  <defs
     id="defs4">
    <clipPath
       id="clip0_3324_2">
      <rect
         width="1130"
         height="1130"
         fill="white"
         id="rect4" />
    </clipPath>
  </defs>
</svg>
